<?xml version="1.0" encoding="utf-8"?>
<!-- Generator: Adobe Illustrator 19.2.1, SVG Export Plug-In . SVG Version: 6.00 Build 0)  -->
<svg version="1.1" id="Layer_1" xmlns="http://www.w3.org/2000/svg" xmlns:xlink="http://www.w3.org/1999/xlink" x="0px" y="0px"
	 viewBox="0 0 240 240" enable-background="new 0 0 240 240" xml:space="preserve">
<rect fill-rule="evenodd" clip-rule="evenodd" fill="none" width="240" height="240"/>
<g>
	<g>
		<path fill-rule="evenodd" clip-rule="evenodd" fill="#BDBDBD" d="M133.1,216c-4.9-2-30.2-13.9-46.4-46.6
			C74.6,145,74.8,117,74.9,105.1c0-1.9,0-4.1,0-4.8l-0.5-1.8l-0.3,0.2l-5.9-11.9l-1.8-3.6c-1.2-2.4-4.9-6.1-8.1-9.4
			c-4-4.1-7.8-7.9-9.6-11.5c-4.6-9.3-6.4-16.9-5.5-23c0.9-6,4.4-10.6,10.4-13.5c3-1.5,5.9-2.2,8.8-2.2c8.8,0,16.4,6.7,23.2,20.5
			c1.8,3.6,2.5,8.9,3.3,14.6c0.6,4.6,1.4,9.7,2.5,12.1L99,86.4l-0.3,0.2l1.1,1.5c0.5,0.5,2.2,1.8,3.8,2.9c9.5,7.2,31.8,24,43.9,48.4
			c16.2,32.8,10.3,60,8.9,65.1l-0.5,1.8l-21.1,10.4L133.1,216z"/>
		<path fill="#1D1D1D" d="M62.3,27.7c6.6,0,13.1,5.1,19.6,18.2c2.9,5.9,2.9,20.8,5.8,26.7l-17.8,8.8c-2.9-5.9-14.8-14.9-17.7-20.8
			c-8.8-17.8-5.8-26.7,3.1-31.1C57.6,28.3,59.9,27.7,62.3,27.7 M90.7,78.6l2.9,5.9l-17.8,8.8l-2.9-5.9L90.7,78.6 M96.5,90.5
			c2,2.8,32.6,20.9,47.3,50.6c14.7,29.7,10.5,55.4,8.6,62.4l-17.8,8.8c-6.7-2.8-29.6-15-44.3-44.7c-14.7-29.7-10.6-65.1-11.6-68.3
			L96.5,90.5 M62.3,19.7c-3.5,0-7,0.9-10.6,2.6c-9,4.4-11.8,11.4-12.6,16.5c-1.1,7,0.8,15.3,5.8,25.4c2,4.1,6.1,8.2,10.3,12.5
			c2.7,2.7,6.5,6.5,7.4,8.3l2.9,6l2.9,5.9l2.3,4.6c0,0.9,0,2.3,0,3.5c-0.1,12.2-0.3,40.8,12.2,66.1c16.8,34,43.3,46.4,48.4,48.5
			l3.4,1.4l3.3-1.6l17.8-8.8l3.3-1.6l0.9-3.5c1.4-5.4,7.6-33.9-9.2-67.9c-12.5-25.3-35.3-42.5-45.1-49.8c-1-0.8-2.1-1.6-2.8-2.2
			l-2.3-4.6l-2.3-4.7l0,0L95,69.3l-0.1-0.2c-0.9-1.8-1.6-7.1-2.2-10.9c-0.8-6-1.6-11.7-3.7-15.8C81.5,27.1,72.7,19.7,62.3,19.7
			L62.3,19.7z"/>
	</g>
	
		<circle fill-rule="evenodd" clip-rule="evenodd" fill="#D6806D" stroke="#1D1D1D" stroke-width="8" stroke-miterlimit="10" cx="157.5" cy="117.3" r="35.7"/>
</g>
</svg>
