<?xml version="1.0" encoding="iso-8859-1"?>
<!-- Generator: Adobe Illustrator 19.2.1, SVG Export Plug-In . SVG Version: 6.00 Build 0)  -->
<svg version="1.1" id="Layer_1" xmlns="http://www.w3.org/2000/svg" xmlns:xlink="http://www.w3.org/1999/xlink" x="0px" y="0px"
	 viewBox="0 0 240 240" style="enable-background:new 0 0 240 240;" xml:space="preserve">
<g>
	<g>
		<polygon style="fill-rule:evenodd;clip-rule:evenodd;fill:#BDBDBD;" points="98.761,21.878 14.017,218.122 141.24,218.122 
			225.983,21.878 		"/>
	</g>
	<g>
		<polygon style="fill:none;stroke:#1D1D1D;stroke-width:8;stroke-linecap:round;stroke-miterlimit:10;" points="98.761,21.878 
			14.017,218.122 141.24,218.122 225.983,21.878 		"/>
	</g>
</g>
<g>
	<polygon style="fill-rule:evenodd;clip-rule:evenodd;fill:#D24949;" points="97.344,117.083 12.601,117.083 12.601,96.976 
		97.344,96.976 97.344,70.292 170.821,107.03 97.344,143.767 	"/>
	<path style="fill:#1D1D1D;" d="M101.344,76.764l60.533,30.265l-60.533,30.266v-24.213H16.6v-12.107h84.743V76.764 M93.344,63.821
		v12.944v16.211H16.6h-8v8v12.107v8h8h76.743v16.213v12.944l11.578-5.789l60.533-30.266l14.311-7.156l-14.312-7.155l-60.533-30.265
		L93.344,63.821L93.344,63.821z"/>
</g>
<rect style="fill-rule:evenodd;clip-rule:evenodd;fill:none;" width="240" height="240"/>
</svg>
